<svg xmlns="http://www.w3.org/2000/svg" xml:space="preserve" viewBox="0 0 640 494"><path d="M1 191V1.02h639.909v493.834H1V191m258.772 232.698c.03-1.221.06-2.443.247-4.594.003-23.042.006-46.085.362-69.342 0 0 .338-.237.596.73v68.692l.851-.006c0-23.442 0-46.883.172-71 .32-.547.55-1.181.975-1.629 12.905-13.589 25.769-27.217 38.772-40.71 7.304-7.578 14.814-14.958 22.308-22.35 1.09-1.076 2.614-1.714 3.943-1.607.054 12.384.108 24.769.005 37.843-1.004 1.263-1.872 2.672-3.035 3.768-10.064 9.481-20.202 18.885-30.257 28.378-1.21 1.144-2.54 2.534-2.987 4.054-2.485 8.466.202 16.738 10.087 16.096 10.402-.676 14.613-9.27 20.242-15.968 0 0 .026.08.789-.032 1.427-.744 2.855-1.488 4.971-1.679.132 11.586.264 23.172.088 35.362-15.538 15.165-30.902 30.516-46.726 45.376-4.378 4.112-6.11 8.258-5.157 14.63 4.66 7.447 14.079 8.566 20.258 2.535 9.522-9.293 19.122-18.507 28.74-27.701.756-.724 1.905-1.036 2.971-.604v52.281l.887-.005c0-18.082 0-36.163.16-54.623 0 0 .032-.41.831-.103.101 18.832.202 37.663.15 57.265 1.32 5.463 5.36 10.814 8.209 10.063 4.43-1.166 8.66-3.111 12.926-4.849.207-.084-.063-1.34-.112-2.642.004-.394.007-.789.751-1.665.077-1.657.22-3.314.221-4.97.017-16.481-.011-32.962.06-49.443.004-1.076.72-2.149.954-2.3v56.237l1.037.002c0-18.686 0-37.371.656-55.944 2.235 1.89 4.607 3.642 6.682 5.694 8.942 8.844 17.702 17.874 26.725 26.634 4.32 4.193 14.833.399 16.692-5.957.003-2.209.005-4.417.15-7.383-.471-1.319-.58-2.994-1.472-3.9-7.419-7.548-14.914-15.025-22.542-22.362-2.389-2.297-5.252-4.1-8.156-6.737-4.55-4.428-9.1-8.855-13.94-13.897-1.668-2.117-3.336-4.234-4.858-7.277.02-11.64.04-23.28.713-34.812 5.815 5.48 11.556 11.042 17.5 16.378 1.337 1.2 3.336 2.164 5.105 2.303 9.844.775 14.077-3.697 13.674-14.652-1.306-1.464-2.613-2.929-3.953-4.313 0 0 .08-.034-.204-.649-1.615-1.784-3.085-3.734-4.88-5.315-2.853-2.513-5.923-4.78-9.13-7.735-1.228-1.103-2.456-2.207-3.975-3.923-4.266-3.832-8.531-7.664-12.978-12.025-.573-.456-1.145-.911-1.853-2.012-.054-.435-.109-.87-.022-2.232.002-11.532-.03-23.065.05-34.597.01-1.462.606-2.92 1.167-3.759 8.793 8.511 17.779 16.835 26.337 25.577 13.448 13.737 26.618 27.746 39.862 41.682.726.764 1.512 1.916 1.492 2.872-.137 6.721-.478 13.439-.9 20.975.043 1.38.085 2.761-.026 4.996.05 1.732.1 3.463.03 6.123-.036 5.672-.073 11.345-.845 17.477.131 5.51.154 11.024.443 16.524.13 2.472.102 6.53 1.346 7.062 3.342 1.428 6.766 5.422 11.8 1.987 2.413-1.422 4.827-2.843 7.852-4.41.034-.82.068-1.642.363-3.343-.031-2.734-.062-5.468.06-9.034a68.083 68.083 0 0 1-.032-5.145c.042-6.008.084-12.015.768-18.338.442-1.566.883-3.131 1.96-4.92-.212-.943-.424-1.885-.71-3.612.03-1.048.06-2.097.789-3.189 6.36 6.02 12.72 12.038 19.392 18.711 1.65 1.508 3.3 3.016 5.074 5.002 5.37 5.723 10.815 11.38 16.096 17.184 7.68 8.442 15.514 8.135 20.936-1.669 3.14-3.118 1.927-6.156.353-9.413-.534-.32-1.068-.642-1.834-1.56-1.555-1.435-3.11-2.871-4.807-5.015-10.323-10.456-20.646-20.912-31.203-31.965-1.554-1.441-3.108-2.882-4.796-4.994-.73-1.103-1.46-2.206-1.816-3.977 1.256-.144 2.511-.29 4.65-.275 2.39-.053 4.778-.105 8.096-.036 6.327.062 12.654.124 19.437.932 8.182-.992 17.333 3.196 23.364-3.471 2.668-10.644-.646-16.78-11.41-18.454-.432.045-.865.089-2.053-.024-.767.049-1.535.098-2.777.039 0 0-.476.107-1.307-.047-1.403.054-2.806.108-5.137.04-6.33-.037-12.66-.073-19.052-.031 0 0 .088-.05-.292-.734-1.56-.04-3.12-.078-5.36-.26-.46.048-.919.096-1.852.03 0 0-.476.11-1.307-.042-1.403.053-2.806.105-5.138.036-6.347.054-12.694.109-19.458-.002 0 0-.444-.065-.734-.732-.945-.05-1.89-.1-3.482-.298-.44-.039-.88-.077-1.591-.72-2.915-2.798-5.83-5.596-8.995-9.008-2.882-2.766-5.765-5.532-8.788-8.99-10.654-10.8-21.308-21.6-32.212-33.011-2.882-2.766-5.765-5.531-8.788-9.006-3.122-3.372-6.66-6.464-9.198-10.23-1.36-2.017-2.283-3.397-4.779-3.524 0 0 .013-.36.94-.464 1.98-.002 3.962-.066 5.939.008 6.36.238 12.718.527 20.001.947 5.04-.042 10.078-.083 15.844.016.736-.042 1.473-.083 2.64.022 0 0 .455.035.584.764 2.586 3.149 5.077 6.383 7.778 9.43 5.768 6.51 11.537 13.024 17.519 19.334 3.491 3.683 6.902 8.674 11.26 9.939 3.91 1.135 10.022-.859 13.388-3.629 3.016-2.482 3.162-7.896.266-12.562-1.048-1.144-2.096-2.288-3.354-3.997-.894-.782-1.789-1.565-2.823-3.049-3.99-4.128-7.978-8.256-12.186-12.959-.602-1.143-1.204-2.286-1.332-3.307 0 0 .477-.11 1.396.04 4.042-.048 8.085-.096 12.604-.028 0 0 .48-.11 1.407.038 5.369-.05 10.737-.099 16.967-.023h4.991c1.462 1.968 2.509 3.734 3.89 5.181 8.908 9.34 17.872 18.625 26.853 27.895 5.098 5.262 10.261 10.461 16.044 16.003 2.705 1.612 5.237 3.746 8.156 4.716 4.451 1.48 11.847-.452 12.547-3.158.984-3.808 1.573-7.869 1.356-11.767-.09-1.63-2.606-3.206-4.16-4.655-4.46-4.164-8.993-8.25-13.723-12.95-1.223-1.108-2.446-2.217-3.812-4.052-5.3-5.424-10.602-10.848-15.994-16.721 0 0 .074-.452.998-.496 19.935.001 39.87.01 59.804 0 5.82-.004 8.386-2.072 10.189-8.59.016-.415.031-.829.558-1.474a7.383 7.383 0 0 1-.541-1.542s-.155-.407-.032-1.23c-.23-4.135-5.495-8.159-10.824-8.166-18.552-.024-37.104.01-55.656-.054-1.473-.005-2.944-.595-3.777-1.155 1.52-1.203 3.17-2.273 4.539-3.63 9.061-8.983 17.874-18.228 27.187-26.94 3.196-2.99 5.275-6.176 6.525-10.988-.63-3.124-1.82-5.875-4.948-7.275 0 0 .082-.035-.241-.686-1.11-2.556-2.818-4.012-6.188-3.298 0 0-.43-.038-.658-.545-.36.162-.72.324-1 .479 0 0-.021-.077-.766.068-1.595.707-3.508 1.067-4.73 2.182-4.932 4.498-9.675 9.204-14.441 13.88-11.072 10.863-22.15 21.722-33.123 32.683-1.046 1.045-1.382 2.802-2.492 4.263 0 0-.425.14-1.155.007-.738.044-1.476.088-2.972-.018-.766.05-1.533.1-3.222.027-5.007.042-10.013.083-15.95-.018h-15.078c7.01-7.75 13.903-15.373 20.957-23.769 1.173-4.324-.788-11.54-5.035-13.295-3.407-1.407-8.716-1.929-11.555-.19-5.346 3.275-9.691 8.298-14.138 12.898-6.06 6.267-11.888 12.763-17.67 19.29-1.226 1.385-1.825 3.325-2.634 5.031 0 0-.023-.078-.946.027-14.296-.012-28.592-.024-42.864-.567.304-.419.607-.838 1.6-1.402 4.443-4.324 8.886-8.647 13.921-13.208.482-.919.964-1.838 2.07-3.024 7.474-7.602 14.948-15.203 23.026-23.01 1.781-1.597 3.663-3.1 5.294-4.839.646-.689.736-1.9 1.699-3.145 6.31-6.326 12.586-12.689 18.962-18.949 1.23-1.206 2.854-2.01 5.223-2.848h68.183v-.814c-23.037 0-46.074 0-69.593-.207a5.973 5.973 0 0 0-.467-.908s.01.078.932-.039c22.989-.002 45.978-.041 68.968.027 4.34.012 7.144-1.65 8.847-6.41-.318-3.214-.637-6.429-1.07-10.362-3.4-5.47-8.873-4.247-13.926-4.27-14.256-.061-28.512-.072-42.777-.53 0 0 .083-.418.596-.587.433-.277.866-.554 1.722-.06h46.66l-.007-.914c-15.304 0-30.607 0-45.767-.644 11.499-11.832 23.021-23.64 34.48-35.51 3.05-3.162 5.796-6.62 8.877-9.75 3.686-3.743 2.848-7.861 1.656-12.743-.854-1.04-1.57-2.244-2.585-3.092-5.303-4.433-10.273-4.542-15.357.087-4.021 3.662-7.628 7.78-12.039 11.949-4.84 5.183-9.648 10.397-14.528 15.543-4.893 5.16-9.84 10.268-14.836 15.328-.283.287-1.226-.078-1.907-1.069V77.743l-.73.008c0 15.068 0 30.135-.153 45.845-.051.437-.102.874-.955.979.154-16.669.315-33.337.398-50.006.002-.23-.957-.467-1.496-.599 0 0 .077-.072-.047-.833-1.273-1.16-2.579-2.286-3.804-3.495-.607-.598-1.065-1.348-2.075-2.657h-1.315c-8.892-.014-12.828 3.83-12.832 12.517-.011 22.47-.026 44.939-.841 67.076V77.712l-1.145.003c0 24.065 0 48.13-.633 72.443-2.73 3.056-5.367 6.202-8.206 9.153-10.473 10.888-20.972 21.753-31.543 32.547-6.971 7.119-14.066 14.117-21.142 21.132-1.75 1.735-3.643 3.326-5.476 4.05 0-9.08-.07-18.162.031-27.24.048-4.247.43-8.49.976-13.358l36.323-34.873c-1.282-3.525-2.769-7.61-4.29-11.61 0 0 .082-.036-.236-.677-1.91-.806-3.82-1.612-5.77-2.337 0 0 .085-.03-.3-.72-4.394-1.032-7.494 1.317-10.455 4.011-5.107 4.647-10.206 9.302-16.053 13.465-.138-11.216-.275-22.43-.267-34.35.996-1.267 1.877-2.648 3.005-3.784 8.527-8.594 17.048-17.195 25.684-25.68 4.967-4.88 10.646-9.133 15.03-14.468 2.427-2.954 7.816-3.886 7.295-9.71-.04-.165-.08-.33.019-1.242-.007-2.844.762-5.99-.199-8.464-1.498-3.86-13.05-5.996-16.178-3.016-11.018 10.498-21.777 21.268-33.51 32.03-.368-1.448-1.05-2.896-1.057-4.346-.076-15.948-.048-31.896-.048-47.844v-5.013l-.855.015c0 19.399 0 38.798-.464 58.809-.22-1.568-.63-3.136-.634-4.705-.046-16.99-.002-33.979-.07-50.968-.007-1.694-.59-3.385-.938-4.998 0 0 .08-.033.003-.894.17-.593.666-1.366.455-1.75-1.521-2.777-10.057-6.011-13.764-5.334-3.139.573-7.228 5.99-7.714 10.945-.023 18.998-.045 37.996-.65 56.983-.185-.058-.37-.115-.426-1.07V19.889c-.947 16.582-.908 33.157-1.009 49.732-.01 1.58-.892 3.153-2.187 4.444-.566-.072-1.133-.144-1.949-.822-2.222-2.095-4.445-4.19-6.956-6.898-2.856-3.172-5.498-6.574-8.617-9.461-4.537-4.2-9.418-8.027-14.183-11.932 0 0 .08-.03-.27-.705-7.129-4.737-15.136-2.564-17.736 5.654-.655 5.933.74 10.712 6.188 14.274 4.012 2.625 7.476 6.16 10.935 9.545 11.665 11.414 23.219 22.941 34.835 35.339 0 10.275.05 20.55-.068 30.825-.012 1.084-.996 2.156-1.895 3.11-.66.282-1.32.564-2.194.284-.897-.775-1.795-1.551-2.987-2.94-1.8-2.12-3.68-4.177-5.387-6.369-7.088-9.1-14.478-10.456-23.107-3.9-.837 1.624-1.674 3.248-3.172 5.251-.062 5.58 2.736 9.692 6.788 13.141 1.847 1.573 3.834 2.992 5.595 4.654 8.901 8.397 17.748 16.851 26.462 26.133-.01 11.145.017 22.29-.078 33.435-.013 1.51-.646 3.016-1.616 4.237-6.43-6.02-12.86-12.038-19.542-18.67-3.212-3.1-6.425-6.201-9.78-10.019-10.323-10.457-20.645-20.914-31.2-31.968-1.554-1.438-3.11-2.875-4.794-5.073-2.064-4.242-.6-8.788-.99-13.994a65.854 65.854 0 0 1-.026-5.132c.04-7.007.08-14.015.705-21.265.049-.61.097-1.22.282-2.468-.04-.432-.078-.864.037-1.976a9.382 9.382 0 0 1-.048-1.851s-.107-.474.048-1.274a43.55 43.55 0 0 1-.036-4.17V76.201c-.416-.19-1.681-.77-3.06-1.803-.18-.293-.44-.442-1.077-1.05a98.24 98.24 0 0 1-3.573-1.603c-7.305-2.047-10.653-.32-14.261 8.144-.119 1.94-.36 3.883-.326 5.821.049 2.773.3 5.543.319 9.06.04.757.079 1.515-.03 3.126.046 2.023.091 4.046-.014 6.901a68.04 68.04 0 0 1 .037 5.133c.048 4.53.096 9.06-.005 14.105-.372.97-.744 1.94-1.536 2.917 0 0-.414-.073-.681-.68-3.58-3.47-7.16-6.94-10.988-11.024-2.882-2.767-5.765-5.533-8.79-9.013-8.929-9.152-17.715-18.449-26.862-27.377-3.263-3.185-10.557-2.57-13.793.337-.82 1.251-1.642 2.502-3.17 4.07-3.182 5.029-.356 9.561 2.563 12.695 13.317 14.294 27.12 28.136 40.859 42.032 1.407 1.423 3.544 2.124 4.997 3.801-1.205.111-2.41.222-4.544.212-6.666-.04-13.333-.078-20.03-.042 0 0 .076-.027-.348-.735-2.215-.032-4.429-.065-7.496-.256-1.733.051-3.465.103-6.121.033-3.757-.004-7.575-.43-11.255.102-4.015.58-8.473 1.314-9.477 7.115.052.595.051 1.201.164 1.785.624 3.232.297 7.36 2.2 9.43 1.82 1.981 5.94 1.984 9.103 2.558 2.725.494 5.525.568 9.084 1.019 1.361-.046 2.722-.092 4.955.011 2.059-.051 4.118-.102 7.104-.032 6.328.062 12.655.124 19.276.838.94.005 1.878.01 3.542.153.734-.04 1.469-.08 3.057.04 1.732-.051 3.465-.102 6.124-.032 5.668.04 11.336.08 17.012.043 0 0-.071.032.03.76.914 1.476 1.603 3.17 2.778 4.395 10.633 11.081 21.336 22.096 32.048 33.1 11.33 11.638 22.694 23.244 33.767 34.581-13.992 0-28.749 0-43.529.078 0 0 .078-.022-.037-.754-2.185-5.86-8.093-8.11-12.078-12.793-.18-.292-.441-.443-.921-1.163-4.653-4.797-9.306-9.594-14.075-14.843-.18-.291-.44-.44-.924-1.157-6.04-8.467-10.81-10.589-18.439-7.062-2.377 1.099-4.883 4.202-5.289 6.718-.54 3.341-1.892 7.821 2.822 10.686.281.18.562.36.897 1.26 5.964 6.037 11.93 12.076 16.979 18.15-4.315.045-8.63.09-13.87-.026-5.044.05-10.088.102-15.608.047 0 0-.475.11-1.308-.043-1.407.05-2.813.1-4.95.032-.736.044-1.472.088-2.633-.018 0 0-.45-.04-.59-.736-9.325-9.464-18.649-18.928-28.224-29.002-2.547-2.433-5.093-4.867-7.78-8.003-1.316-1.64-2.506-3.404-3.972-4.897-3.76-3.828-7.21-8.196-11.61-11.09-3.772-2.48-12.939 2.311-15.124 6.883-2.317 4.85.316 11.771 5.879 15.5.66.791 1.322 1.582 1.906 2.903.291.183.582.367 1.123 1.167 7.095 7.095 14.222 14.159 21.25 21.32 1.05 1.071 1.631 2.602 1.506 3.968-6.995.056-13.99.111-21.91.018H108.7v.82c11.43 0 22.86 0 35.218.149 7.345-.043 14.69-.085 22.824.026 1.07.046 2.14.09 3.204.537 0 0-.061.397-.983.44-19.11.002-38.22-.017-57.329.016-6.579.011-10.838 3.788-11.613 10.713.286 1.108.572 2.215.973 4.062 1.857 4.34 5.64 6.108 9.862 6.152 15.708.163 31.42-.016 47.88.308 3.246.4 6.494.798 10.28 1.263-1.295 1.007-2.219 1.726-3.754 2.708-10.433 10.905-20.866 21.811-31.933 32.854-.127.654-.255 1.308-.352 2.6-.054.42-.109.839-.95 1.266-2.463 5.502 1.71 11.7 9.175 13.804 1.264.043 2.529.086 4.538.26 3.994-3.097 8.32-5.852 11.92-9.354a1734.87 1734.87 0 0 0 35.008-35.052c2.638-2.717 4.35-6.333 6.934-9.57 0 0 .423-.148 1.282-.013 2.028-.042 4.055-.084 7.014.02 6.37-.049 12.74-.098 20.021-.021 3.67.011 7.339.023 10.922.639-.626.427-1.252.855-2.527 1.539-.978.798-2.076 1.489-2.912 2.415-3.943 4.37-7.97 8.68-11.639 13.273-1.53 1.917-6.433 2.027-3.883 6.433-7.263 3.517-.852 8.794.296 10.549 3.637 5.563 10.201 8.149 16.423 2.032 5.013-4.928 10.005-9.88 14.895-14.93 3.263-3.37 6.122-7.155 9.544-10.343 3.76-3.502 7.959-6.533 12.896-9.635 13.728-.036 27.455-.072 41.81.44-6.844 7.29-13.652 14.612-20.542 21.858a483.493 483.493 0 0 1-14.744 14.826c-.173.305-.346.61-1.153 1.16-.737 1.051-1.345 2.23-2.233 3.132-8.477 8.626-16.956 17.252-25.55 25.76-1.912 1.893-4.28 3.326-7.387 4.856h-66.4l.004.871c22.449 0 44.897 0 67.912.18.406.291.812.583 1.296.891 0 0-.017-.076-.94.028-22.457.002-44.913.002-67.37.01-6.364.003-9.72 2.651-11.634 9.781.188 8.206 3.112 11.207 11.08 11.237 15.957.06 31.913.079 47.878.475 0 0-.02.359-.854.483-1.401.084-2.802.167-5.107.06h-44.364l.005.928c15.076 0 30.151 0 45.193.727-3.245 3.899-6.286 7.993-9.774 11.66-10.642 11.189-21.488 22.183-32.152 33.35-1.014 1.061-1.313 2.805-2.664 4.655-.731 5.105-.757 10.742 4.864 12.389 4.058 1.188 10.323 1.275 13.182-1.083 8.808-7.264 16.485-15.907 24.541-24.074 6.116-6.2 12.14-12.49 18.959-18.266v43.86l1.045-.006c0-15.078 0-30.155.209-45.683.178-.341.456-.479.91.514.058 15.673.116 31.346.054 47.775 2.785 8.329 6.967 9.884 17.672 6.038 1.148-1.584 2.295-3.169 4.091-5.11m278.729-163.704h-18.588l.028.72h52.305l.002-.72h-33.747z"/><path fill="#6AB3E5" d="M422.126 382.013c-.05-1.732-.1-3.463.16-5.903.442-2.175.575-3.641.954-5.409.524-8.08.841-15.857 1.008-23.638.013-.616-.985-1.279-1.558-1.877-7.694-8.035-15.316-16.14-23.116-24.071-9.913-10.08-20.019-19.968-29.944-30.035-4.19-4.25-8.088-8.786-12.216-13.1-.96-1.004-2.36-3.26-3.685.074-.447.01-.626.016-.774.024.03.004-.004.055-.115-.252a59.463 59.463 0 0 0-1.995-3.067l-1.233.835c.752 1.133 1.504 2.265 2.336 3.86.088 7.434.245 14.41.028 21.375-.087 2.795-.996 5.564-1.617 9.012-.02 1.11.048 1.553.137 1.582.298-.4.574-.387.443.006-.587 3.226-2.632 6.395 1.025 8.587.013.008.026.035.097.349.745.737 1.418 1.161 2.091 1.585.573.455 1.145.91 1.832 1.984 3.74 5.243 6.724 10.603 13.155 12.02 1.228 1.103 2.456 2.207 3.822 3.954 4.082 5.595 7.407 11.248 14.156 13.02 0 0-.08.035-.075.366.98 1.796 1.954 3.26 2.878 5.093-4.064 12.894-10.523 14.387-19.947 5.118-4.836-4.757-9.867-9.32-14.92-13.849-.881-.79-2.453-1.521-3.434-1.26-.758.203-1.532 1.997-1.542 3.09-.107 11.615-.176 23.232-.003 34.845.07 4.683 4.159 8.69 9.072 9.62 4.55 4.427 9.1 8.854 13.802 13.94 1.227 2.088 2.155 3.665 3.402 4.927 7.577 7.668 15.217 15.275 22.86 22.878 1.823 1.813 3.74 3.531 5.613 5.293-.002 2.209-.004 4.417-.72 6.873-10.52 6.137-11.753 5.966-20.213-2.484-7.188-7.18-14.428-14.308-21.536-21.565-3.38-3.45-6.556-7.057-12.352-6.155 0 17.184-.045 34.654.047 52.122.015 2.79.65 5.576.999 8.364-.003.394-.006.789-.203 1.706-1.398.882-2.714 1.04-3.791 1.633-6.516 3.587-11.197 1.934-14.263-5.046-.272-.619-1.177-.96-1.79-1.9-.006-19.16-.01-37.85.314-56.617 2.476-2.216 1.254-2.995-.953-2.668-1.158.171-2.288 1.247-3.216 2.138-10.054 9.657-20.106 19.315-30.073 29.061-7.458 7.293-11.236 7.362-18.65.091-.32-.315-.903-.363-1.374-.917 2.907-4.858 5.158-10.002 8.86-13.692 14.13-14.084 28.761-27.664 43.067-41.575.874-.85.555-2.927.868-4.67.077-.236.092-.733.125-1.2.03-11.823.026-23.18.257-34.772.947-1.111 1.657-1.989 2.368-2.867-1.319-.28-3.321-1.244-3.841-.725-2.448 2.447-4.488 5.3-6.674 8.009 0 0-.026-.08-.34-.049-4.492 3.52-8.683 6.992-12.843 10.5-3.968 3.347-9.35 3.44-12.625.178-3.28-3.267-3.24-8.695.13-12.611.757-.881 1.605-1.69 2.456-2.485 9.71-9.061 19.38-18.167 29.187-27.123 1.898-1.733 2.511-3.217 1.197-5.496.416-.488.592-.818.761-1.61-.015-13.09-.025-25.72.2-38.613a102.42 102.42 0 0 0 2.33-3.962c-1.464.171-3.028.083-4.358.599-.995.386-1.701 1.536-2.513 2.37-12.038 12.37-24.087 24.73-36.105 37.119-9.473 9.766-18.967 19.514-28.273 29.437-.97 1.035-.724 3.21-1.097 5.036-.054.182-.157.553-.157.553-.004 23.043-.007 46.086-.389 69.74-1.13 1.84-1.881 3.065-2.93 4.447-7.086 5.894-8.925 5.75-15.602-.776-.737-.72-1.974-.928-2.979-1.374-.058-15.673-.116-31.346.027-47.69-.092-1.6-.385-2.528-.679-3.457-1.227.612-2.732.952-3.64 1.877-10.333 10.535-20.575 21.159-30.84 31.759-2.886 2.978-5.95 5.806-8.609 8.976-3.366 4.014-7.781 5.977-12.176 4.28-4.315-1.668-5.509-5.414-5.075-10.067 2.08-2.962 3.737-5.874 5.988-8.217 12.722-13.24 25.606-26.323 38.365-39.527 1.079-1.117 1.647-2.727 2.452-4.108 0 0 .02-.36.107-.86-1.224-.993-2.531-1.905-3.845-1.915-13.994-.104-27.99-.053-41.984-.07-6.573-.008-10.339-3.387-11.01-10.26 2.842-5.872 7.412-6.937 13.244-6.85 19.72.297 39.45.168 59.173.021 1.773-.013 3.536-1.324 5.304-2.032 0 0 .017.076.33.047 1.741-1.11 3.336-2.028 4.57-3.296 8.2-8.429 16.425-16.84 24.392-25.485 1.753-1.901 2.505-4.726 3.717-7.125.173-.305.346-.61.786-.707 1.45 4.206 2.764.592 3.314.033 8.862-9.017 17.596-18.16 26.39-27.246 2.896-2.993 5.922-5.862 8.76-8.907.325-.347-.18-1.467-.247-2.457.055-.229-.034-.69.172-.95-1.098-.765-2.392-1.68-3.708-1.71-6.47-.153-12.947-.187-19.416-.04-7.443.169-14.88.571-22.31.785.009-.087.209-.028.209-.028s.06.367-.365.18c-2.635.904-5.358 1.5-6.973 3.17-9.823 10.145-19.346 20.58-29.073 30.821-3.745 3.943-10.71 4.372-13.849 1.132-3.653-3.771-3.203-8.717 1.04-13.286 4.745-5.11 9.44-10.272 13.996-15.55.591-.686.223-2.2.299-3.33.625-.427 1.251-.855 2.123-1.842-2.817-2.918-9.18-2.735-12.078-.205-6.37.05-12.74.098-19.862-.159-2.874-.153-4.998 0-7.122.151 0 0-.423.147-1 .188-2.125 1.236-3.84 2.268-5.198 3.65-14.061 14.313-28.05 28.696-42.1 43.02-2.142 2.182-4.493 4.157-7.16 6.24-1.51.034-2.61.057-3.71.08-7.12-1.417-11.293-7.616-8.095-13.158 11.632-11.216 22.553-22.366 33.344-33.64.513-.536-.128-2.177-.232-3.303.923-.72 1.847-1.438 3.141-2.445-3.785-.465-7.033-.864-10.783-1.82-2.206-.928-3.906-1.607-5.612-1.621-11.32-.098-22.642-.047-33.963-.059-5.737-.006-11.796 1.084-15.857-4.71-.251-.357-1.263-.181-1.92-.253-.287-1.107-.573-2.214-.422-3.708 1.033-.64 2.043-.767 2.164-1.164 2.304-7.599 8.404-7.224 14.52-7.193 16.472.082 32.946.053 49.418-.05 1.217-.008 3.875 1.398 3.325-1.98 0 0 .061-.396.04-.949-.636-1.516-1.117-2.606-1.887-3.423-6.735-7.131-13.427-14.306-20.335-21.268-2.99-3.013-6.454-5.555-9.853-8.64-.751-1.518-1.417-2.678-1.94-3.9-1.877-4.384-.909-8.957 2.337-11.277 3.405-2.434 8.442-1.97 11.904 1.219 2.08 1.916 3.915 4.104 6.05 5.95 2.199 1.902 4.628 3.538 6.957 5.29 2.546 2.434 5.092 4.868 7.758 7.978.876 2.077 1.364 3.741 2.435 4.836 7.273 7.444 14.638 14.8 22.065 22.093.984.966 2.484 1.407 3.745 2.092 0 0 .45.04.862.322 1.258.14 2.105-.004 2.951-.147 1.407-.05 2.813-.1 4.733.054.513.204.939.27.939.27l.332-.325c5.044-.05 10.088-.101 15.924.171 5.549.124 10.306-.075 15.062-.639-.23-1.146-.227-2.15-.727-2.676-6.036-6.366-12.146-12.661-18.3-19.376-1.146-4.824-2.448-9.424 2.266-12.582 3.685-2.469 9.073-.955 13.468 3.098 1.278 1.178 2.976 1.902 4.481 2.834.342.008.602.158.833 1.048 4.754 5.384 9.458 10.17 14.161 14.954.343.01.604.161.836 1.052 4.082 4.708 8.112 8.817 12.141 12.926 0 0-.078.022.024.377 1.088.798 2.072 1.62 3.061 1.627 13.14.089 26.281.113 39.42-.016 1.243-.012 3.442-1.086 3.5-1.807.11-1.328-.724-3.062-1.715-4.102-10.09-10.577-20.22-21.118-30.48-31.53-11.441-11.61-23.005-23.1-34.592-34.565-1.226-1.212-2.962-1.909-4.461-2.844 0 0 .071-.032-.029-.384-5.648-.684-11.194-1.044-16.746-1.279-.343-.014-.727.955-1.093 1.467-1.732.05-3.465.102-5.823-.13-1.47-.155-2.313-.025-3.156.104-.939-.004-1.878-.009-3.05-.734-6.686-.86-13.139-1.006-19.592-1.103-.122-.002-.252.563-.379.864-2.058.05-4.117.102-6.86-.146-2.144-.166-3.603-.034-5.063.097-2.767-.26-5.567-.334-8.292-.828-3.163-.574-7.283-.577-9.103-2.558-1.903-2.07-1.576-6.198-2.2-9.43-.113-.584-.112-1.19.485-1.917 5.694-4.94 11.827-5.782 18.44-5.216.8.069 1.709-1.134 2.567-1.748 1.732-.051 3.464-.103 5.932.163 2.886.427 5.035.537 7.185.647 0 0-.077.027.035.38 6.898.472 13.683.596 20.47.672.122.002.252-.562.378-.862 1.205-.111 2.41-.222 3.765-1.006-.46-1.637-.931-2.735-1.705-3.543a5736.216 5736.216 0 0 0-27.677-28.69c-4.29-4.412-8.857-8.567-12.975-13.13-2.492-2.76-5.716-5.544-3.738-10.203.222-.525-1.14-1.721-1.767-2.606.821-1.25 1.642-2.502 2.8-3.468.944.609 1.869 1.37 2.114 1.193 5.463-3.956 9.336-1.206 13.193 2.767 6.682 6.884 13.49 13.646 20.355 20.348 1.345 1.314 3.186 2.12 4.799 3.16 2.882 2.767 5.765 5.533 8.766 8.978 3.392 4.345 6.66 8.017 9.982 11.64.062.067.755-.445 1.154-.687 0 0 .414.073.908.214 1.182.48 1.87.818 3.028 1.39 0-2.193 0-3.84.003-5.95.004-2.628.25-4.827-.06-6.945-.325-2.232-1.18-4.387-1.804-6.576-.052-1.405-.105-2.81.152-4.914.158-2.819.005-4.938-.147-7.056-.04-.757-.079-1.515.266-2.508 1.093-.605 2.403-.951 2.418-1.345.145-3.911.235-7.842-.055-11.738-.065-.87-1.678-1.626-2.578-2.434 3.446-7.592 6.794-9.319 14.546-6.749 1.438.91 2.429 1.297 3.42 1.683.342.005.603.154.84 1.105.374 7.07.581 13.49 1.085 19.887.135 1.717 1.173 3.364 1.797 5.043.052 1.08.105 2.161-.045 3.738-.377.809-.293 1.06.049 1.252.05.46.102.918-.11 1.87-.145 1.035-.028 1.579.089 2.122-.048.61-.096 1.22-.829 2.05-.806 7.345-.932 14.468-1.012 21.592-.001.124.564.254.865.38.05 1.402.101 2.803-.157 4.912-.914 2.688-1.508 4.672-2.127 6.648-1.12 3.58-.94 6.523 3.556 7.398 1.555 1.438 3.11 2.875 4.775 4.983.758 1.96 1.135 3.516 2.098 4.497a2317.301 2317.301 0 0 0 25.726 25.752c.87.858 2.26 1.19 3.408 1.765 3.212 3.102 6.425 6.203 9.757 9.982.333 1.465.3 2.494.797 3.002 6.962 7.1 13.887 14.242 21.083 21.098 2.004 1.91 4.067 1.298 4.201-2.495 0-13.491 0-26.514-.05-39.886-1.689-2.574-3.054-5.082-5.015-6.973-10.941-10.546-22.094-20.874-33.004-31.453-2.085-2.022-3.406-4.834-5.08-7.281.837-1.624 1.674-3.248 3.044-4.698 1.456.111 2.487.297 3.284-.051 6.518-2.847 8.835-2.506 13.816 2.321 2.149 2.082 4.107 4.388 6.414 6.268 1.305 1.062 3.144 1.469 4.742 2.17.897.776 1.795 1.552 2.824 2.965 2.428 2.44 4.726 4.242 7.34 5.987.106-.991-.105-1.925-.53-3-.411-.415-.61-.688-.795-1.427.069-11.804.125-23.144.506-34.495 4.75-2.268.295-3.534-.507-4.33-15.823-15.725-31.898-31.197-47.632-47.007-2.495-2.507-3.594-6.404-4.999-9.726 3.594-5.063 7.857-7.417 13.891-5.358.897.306 1.917.25 2.88.363 0 0-.081.029-.047.34A930.27 930.27 0 0 0 314.3 66.42c.555.563 1.87.375 2.832.536 2.222 2.096 4.445 4.19 6.817 6.945 3.6 6.467 5.416 7.524 9.055 5.504-1.08-.856-2.055-1.629-2.76-2.718.432-2.123.729-3.93.733-5.736.037-17.321.024-34.642.37-52.051 2.4-5.645 5.822-9.543 12.258-7.727 2.735.771 5.023 3.126 7.515 4.76 0 0-.08.034-.148.413-.36 1.667-.906 2.955-.91 4.245-.054 19.415-.037 38.831-.037 59.65 2.602-1.262 4.817-1.77 6.24-3.116 10.24-9.686 20.319-19.543 30.455-29.34.834-.807 1.632-1.689 2.587-2.327 6.007-4.012 12.708-.994 13.755 6.035.193 1.3 1.174 2.484 1.791 3.72.04.166.081.33-.354.711-.945.359-1.555.36-1.866.665-16.686 16.414-33.368 32.832-49.966 49.335-1.204 1.198-2.499 3.019-2.527 4.572-.213 11.795-.154 23.596-.103 35.394.015 3.648 2.383 3.672 4.753 2.421 1.557-.822 2.734-2.385 4.045-3.653 6.855-6.636 13.043-14.107 22.285-17.743 0 0-.084.03-.01.347 2.055 1.098 4.034 1.88 6.013 2.66 0 0-.082.036-.074.416.837 4.761 2.505 9.46-1.206 13.137-8 7.93-15.963 15.962-24.582 23.188-7.165 6.006-12.62 11.771-11.49 22.32 1.072 10.014.2 20.233.292 30.362.006.743-1.209 3.778 1.961 1.929.408.401.677.594 1.176.879a1698.048 1698.048 0 0 0 27.907-27.78c13.742-13.992 27.473-27.997 41.033-42.164 1.534-1.604 2.72-4.284 2.74-6.477.197-22.292.227-44.588.007-66.88-.036-3.68 1.084-6.646 4.123-7.585 2.878-.89 6.331-.312 9.453.15 1.644.243 3.122 1.617 4.674 2.481 0 0-.077.072-.154.44-.376 1.817-.928 3.266-.933 4.717-.063 15.877-.04 31.754-.04 47.883 1.156-.368 2.059-.656 3.008-.675.554.38 1.334.759 1.526.562 10.69-10.918 21.35-21.866 31.896-32.922.404-.423-.343-1.942-.553-2.95 3.79-3.917 7.398-8.035 11.42-11.697 5.083-4.629 10.053-4.52 15.356-.087 1.015.848 1.731 2.052 2.323 3.768.029 8.383-5.206 12.813-10.02 17.667-12.285 12.388-24.403 24.944-36.488 37.53-.87.906-.928 2.593-1.364 3.917 0 0-.083.418-.17.95 1.222 1.02 2.526 1.92 3.839 1.932 12.267.109 24.536-.013 36.803.104 4.643.045 9.706-1.394 13.442 3.102.36.432 1.854-.079 2.821-.152.318 3.215.637 6.43.223 9.847-6.64 4.947-13.634 4.196-20.512 4.18-17.4-.04-34.8-.074-52.197.08-1.771.016-3.531 1.327-5.296 2.037 0 0-.01-.078-.344-.083-.978.12-1.854.02-2.233.407a2153.386 2153.386 0 0 0-21.385 22.138c-.08.084.664.955 1.024 1.458-.343.973-.433 2.184-1.079 2.873-1.63 1.738-3.513 3.242-5.978 4.704-1.61.04-2.869-.11-3.409.443-6.925 7.09-13.752 14.276-20.541 21.498-.091.097.638.964.984 1.472-.482.918-.964 1.837-1.979 2.717-1.337-.166-2.604-.684-2.876-.361-3.813 4.517-7.49 9.149-11.2 13.753a15.75 15.75 0 0 0-1.138 1.779c.724 1.038 1.67 1.998 2.625 2.005 12.535.099 25.071.124 37.605-.032 1.269-.016 2.522-1.325 3.783-2.033 0 0 .023.078.335.049 1.856-1.226 3.566-2.26 4.917-3.644 9.477-9.714 18.87-19.51 28.314-29.257 3.133-3.234 7.037-4.42 10.718-1.693 3.042 2.253 7.294 4.678 4.711 9.984-.098.203 1.234 1.103 1.9 1.678l-20.797 22.996c4.725 0 9.902 0 15.87.318 5.889.152 10.985-.012 16.08-.177.767-.05 1.534-.1 2.879.132 1.427.145 2.275.007 3.123-.131 0 0 .425-.14 1-.181 2.13-1.242 3.833-2.291 5.214-3.665 14.285-14.214 28.512-28.485 42.771-42.725 2.284-2.28 4.645-4.483 6.97-6.722 0 0 .022.077.309.11.505.02.723.007.94-.005 0 0 .43.038.646.483 2.243 1.464 4.27 2.484 6.296 3.504 0 0-.082.035-.082.357.65 1.788 1.298 3.256 1.939 5.105-1.955 3.912-3.282 8.028-5.96 10.869-9.312 9.878-19.115 19.292-28.661 28.952-1.02 1.031-1.577 2.518-2.319 4.2 1.79 1.132 3.544 2.475 5.31 2.492 16.829.163 33.66.186 50.488.056 5.705-.045 11.123-.092 13.786 6.345.19.461 1.474.47 2.248.69 0 0 .155.407.15.96.008.774.021.997.034 1.22-.015.414-.03.828-.476 1.55-5.845 7.226-13.438 6.412-20.976 6.331-15.396-.165-30.794-.088-46.19.046-1.103.01-4.103-1.804-3.321 1.95 0 0-.074.452-.257.881 5.317 5.96 10.819 11.49 16.32 17.02 1.223 1.107 2.446 2.216 3.775 3.988.98 2.183 1.62 3.917 2.776 5.18 2.9 3.171 6.074 6.087 9.059 9.183 3.965 4.113 4.364 9.872 1.016 13.325-3.35 3.454-9.204 3.145-13.338-.683-1.45-1.344-2.94-2.644-4.575-4.255-3.962-4.25-7.776-8.195-11.556-12.172-10.414-10.957-20.704-22.036-31.3-32.814-2.55-2.594-6.067-3.087-9.003.182-5.369.05-10.737.099-16.666-.052-.874-.377-1.129-.295-1.324.046-4.042.048-8.085.096-12.683-.055-.863-.37-1.116-.292-1.314.037.602 1.143 1.204 2.286 1.91 4.088 4.142 4.774 8.182 8.888 12.222 13.002.894.782 1.789 1.565 2.78 2.988.755 2.115 1.413 3.59 2.068 5.492.21 4.758-.03 8.977-4.825 10.886-3.672 1.463-7.33 1.107-10.15-1.871-6.158-6.506-11.984-13.334-18.267-19.713-5.058-5.135-10.589-9.804-15.91-14.68 0 0-.453-.034-.868-.312-1.261-.146-2.107-.015-2.953.116-5.039.04-10.078.082-15.441-.315 3.465-.993 7.255-1.549 11.046-2.104-12-.428-24.016-.455-36.03-.338-.527.005-1.04 1.323-1.56 2.03 0 0-.012.36.021.892 4.717 4.999 9.401 9.465 14.085 13.93 2.882 2.767 5.765 5.532 8.766 8.976.882 2.083 1.374 3.754 2.451 4.85a2266.59 2266.59 0 0 0 26.027 26.058c.988.974 2.491 1.424 3.756 2.117 2.882 2.766 5.765 5.532 8.766 8.977 1.922 4.749 3.818 8.717 9.146 8.933.44.039.88.077 1.894.413 1.45.42 2.324.544 3.2.668 0 0 .443.065.787.513 6.678.625 13.013.816 19.35.925.223.004.461-.815.693-1.25 1.403-.052 2.806-.104 4.72.046.512.203.936.274.936.274l.334-.322c.46-.047.919-.095 2.005.165 2.122.417 3.618.527 5.113.636 0 0-.088.05.037.4 6.577.468 13.028.591 19.48.666.121.002.25-.562.375-.863 1.403-.054 2.806-.108 4.721.042.512.203.936.272.936.272l.334-.321c.767-.05 1.535-.098 2.835.115 1.074.144 1.616.027 2.157-.091 10.127 1.527 13.44 7.663 10.773 18.307-6.03 6.667-15.182 2.48-23.678 2.704-6.767-.907-13.22-1.053-19.674-1.15-.122-.002-.252.563-.378.863-2.389.053-4.778.105-7.89-.152-2.189-.436-3.654-.563-5.196-1.018-.723-.637-1.37-.946-2.017-1.254-.156 1.045-.823 2.597-.38 3.043 1.677 1.682 3.714 3.004 5.616 4.461 1.554 1.442 3.108 2.883 4.775 4.994.764 1.958 1.146 3.51 2.11 4.491a2327.961 2327.961 0 0 0 25.717 25.743c.87.858 2.258 1.192 3.406 1.769 1.554 1.436 3.11 2.872 4.763 4.891.09.773.082.963-.032 1.203-.106.049-.117.34-.117.34s.24-.372.52-.367c.47.014.657.024.845.034 2.093 3.023 3.307 6.061-.195 9.468-.827.346-1.424.235-1.739.483-7.487 5.879-10.024 5.51-16.449-1.635-5.588-6.215-11.493-12.146-17.258-18.203l-1.193.826-.157 2.247c-1.65-1.508-3.3-3.016-4.837-4.988-.341-1.878-.372-3.731-1.314-4.633-6.352-6.082-12.897-11.962-19.895-18.38l-1.953 2.875 2.96 1.934c-.03 1.049-.061 2.098-.09 3.919.025 1.536.049 2.299.073 3.062-.441 1.566-.882 3.131-2.036 4.955-.834 6.383-.96 12.507-1.04 18.63-.001.123.562.252.862.378.051 1.405.102 2.811-.158 4.93-.91 3.005-1.048 5.568-2.21 7.524-1.796 3.026-4.291 5.637-6.49 8.424-4.297 3.56-7.72-.433-11.063-1.861-1.244-.532-1.216-4.59-1.346-7.062-.29-5.5-.312-11.015.174-16.594 1.148-.36 2.135-.64 2.141-.94.096-4.784.174-9.575-.018-14.353-.042-1.036-1.156-2.03-1.776-3.042m-12.543-190.772c-.257.204-.452.454-.8.851l-.009.289s.233-.376.647-.622c.259-.202.455-.453.798-.85l.012-.287s-.237.37-.648.62m-172.036-61.735s-.065.031 0 0M353.55 274.512s-.068.034 0 0z"/><path fill="#71BEF6" d="M443.076 73.517c-1.49-.483-2.968-1.857-4.612-2.1-3.122-.462-6.575-1.04-9.453-.15-3.039.94-4.159 3.905-4.123 7.586.22 22.291.19 44.587-.007 66.879-.02 2.193-1.206 4.873-2.74 6.477-13.56 14.167-27.291 28.172-41.033 42.164-9.174 9.341-18.448 18.585-27.898 27.409-.243-.956-.267-1.449-.25-2.167.04-.226.26-.629.415-.777.344-.368.503-.607.633-.864 1.827-1.658 3.72-3.249 5.47-4.984 7.076-7.015 14.17-14.013 21.142-21.132 10.571-10.794 21.07-21.659 31.543-32.547 2.839-2.951 5.476-6.097 8.79-9.438 1.055-1.177 1.525-2.07 1.995-2.962.014-22.47.029-44.94.04-67.41.004-8.686 3.94-12.53 12.832-12.516h1.315c1.01 1.31 1.468 2.059 2.075 2.657 1.225 1.209 2.531 2.335 3.866 3.875z"/><path fill="#71BCF3" d="M243.931 164.432c1.45.571 3.185 1.268 4.41 2.48 11.588 11.465 23.152 22.955 34.593 34.565 10.26 10.412 20.39 20.953 30.48 31.53.991 1.04 1.824 2.774 1.716 4.102-.06.72-2.258 1.795-3.5 1.807-13.14.13-26.281.105-39.42.016-.99-.007-1.974-.83-3.051-1.666 14.667-.394 29.424-.394 43.416-.394-11.073-11.337-22.437-22.943-33.767-34.581-10.712-11.004-21.415-22.019-32.048-33.1-1.175-1.225-1.864-2.919-2.829-4.76z"/><path fill="#72BEF4" d="M380.929 126.57c-9.05 3.981-15.238 11.452-22.093 18.088-1.311 1.268-2.488 2.83-4.045 3.653-2.37 1.251-4.738 1.227-4.753-2.421-.051-11.798-.11-23.599.103-35.394.028-1.553 1.323-3.374 2.527-4.572 16.598-16.503 33.28-32.92 49.966-49.335.31-.305.92-.306 1.785-.423 1.077 5.367-4.312 6.3-6.738 9.253-4.385 5.335-10.064 9.589-15.03 14.469-8.637 8.484-17.158 17.085-25.685 25.679-1.128 1.136-2.01 2.517-3.26 4.278-.468.72-.633.977-1.149 1.433-.443 10.995-.505 21.823-.494 32.65 0 .65.586 1.297 1.062 2.082.724-.516 1.285-1.169 1.847-1.821 5.103-4.651 10.202-9.306 15.309-13.953 2.96-2.694 6.06-5.043 10.648-3.666z"/><path fill="#70BDF2" d="M353.997 278.048c1.057-3.329 2.456-1.072 3.417-.067 4.128 4.313 8.026 8.85 12.216 13.099 9.925 10.067 20.031 19.956 29.944 30.035 7.8 7.93 15.422 16.036 23.116 24.07.573.6 1.571 1.262 1.558 1.878-.167 7.781-.484 15.559-1.22 23.638-.456.3-.88.304-.88.304.277-6.72.618-13.437.755-20.158.02-.956-.766-2.108-1.492-2.872-13.244-13.936-26.414-27.945-39.862-41.682-8.558-8.742-17.544-17.066-26.563-26.15-.48-1.081-.734-1.588-.989-2.095z"/><path fill="#71BFF4" d="M351.418 479.903c-.719-2.547-1.354-5.333-1.369-8.123-.092-17.468-.047-34.938-.047-52.122 5.796-.902 8.972 2.704 12.352 6.154 7.108 7.258 14.348 14.387 21.536 21.566 8.46 8.45 9.693 8.621 19.861 2.694-.794 5.899-11.308 9.693-15.627 5.5-9.023-8.76-17.783-17.79-26.725-26.634-2.075-2.052-4.447-3.804-7.12-5.964-.607-.548-.83-.774-1.105-.948-.385 1.074-1.1 2.147-1.104 3.223-.071 16.48-.043 32.962-.06 49.442a22.082 22.082 0 0 1-.592 5.212zM404.924 54.84c-.687-.863-1.668-2.047-1.861-3.347-1.047-7.03-7.748-10.047-13.755-6.035-.955.638-1.753 1.52-2.587 2.327-10.136 9.797-20.215 19.654-30.455 29.34-1.423 1.346-3.638 1.854-6.24 3.115 0-20.818-.017-40.234.037-59.65.004-1.289.55-2.577.927-4.284.4 1.274.982 2.965.989 4.66.068 16.988.024 33.978.07 50.967.004 1.569.413 3.137 1.189 4.386a94.608 94.608 0 0 1 2.745-1.397c10.857-10.667 21.616-21.437 32.634-31.935 3.127-2.98 14.68-.844 16.178 3.016.96 2.474.192 5.62.129 8.838z"/><path fill="#6FBCF1" d="M236.64 260.052c.249 1.002.617 2.516.026 3.201-4.556 5.279-9.25 10.44-13.996 15.551-4.243 4.569-4.693 9.515-1.04 13.286 3.139 3.24 10.104 2.81 13.85-1.132 9.726-10.24 19.249-20.676 29.072-30.822 1.615-1.668 4.338-2.265 6.728-2.942-.478.655-1.134.896-2.526 1.406 1.202.299 1.727.43 2.249.73-.004.17.003.51.003.51-4.008 3.237-8.207 6.268-11.967 9.77-3.422 3.188-6.28 6.973-9.544 10.343-4.89 5.05-9.882 10.002-14.895 14.93-6.222 6.117-12.786 3.531-16.423-2.032-1.148-1.755-7.559-7.032-.296-10.55-2.55-4.405 2.353-4.515 3.883-6.432 3.669-4.594 7.696-8.904 11.64-13.273.835-.926 1.933-1.617 3.236-2.544zM260.24 349.242c.319-1.646.073-3.82 1.043-4.855 9.306-9.923 18.8-19.671 28.273-29.437 12.018-12.39 24.067-24.75 36.105-37.12.812-.833 1.518-1.983 2.513-2.37 1.33-.515 2.894-.427 4.357-.598-.698 1.233-1.397 2.466-2.6 3.974-.685.586-.864.898-1.246 1.291-.4.302-.564.543-.693.807-1.323.841-2.846 1.48-3.937 2.556-7.494 7.39-15.004 14.77-22.308 22.349-13.003 13.493-25.867 27.121-38.772 40.71-.425.448-.654 1.082-1.282 2.052-.306.424-.718.658-.9.619-.184-.04-.553.022-.553.022z"/><path fill="#71BCF3" d="M329.002 319.206c1.553 2.12.94 3.604-.958 5.337-9.807 8.956-19.477 18.062-29.187 27.123-.851.794-1.699 1.604-2.457 2.485-3.369 3.916-3.408 9.344-.129 12.61 3.276 3.264 8.657 3.17 12.625-.176 4.16-3.509 8.351-6.981 12.883-10.488-5.355 6.654-9.566 15.248-19.968 15.924-9.885.642-12.572-7.63-10.087-16.096.446-1.52 1.776-2.91 2.987-4.054 10.055-9.493 20.193-18.897 30.257-28.378 1.163-1.096 2.03-2.505 3.327-4.087.293-.32.707-.2.707-.2z"/><path fill="#70BDF2" d="M359.001 395.644c-4.768-.624-8.857-4.63-8.927-9.313-.173-11.613-.104-23.23.003-34.844.01-1.094.784-2.888 1.542-3.09.98-.262 2.553.47 3.434 1.26 5.053 4.528 10.084 9.09 14.92 13.848 9.424 9.269 15.883 7.776 20.168-5.124.27-.375.712-.382.712-.382.54 10.232-3.693 14.704-13.537 13.93-1.769-.14-3.768-1.103-5.105-2.304-5.944-5.336-11.685-10.898-17.876-16.743-.745-.843-1.115-1.32-1.854-1.58-.398 11.023-.452 21.832-.415 32.64.003.985.585 1.969.94 3.244.31.794.578 1.297.846 1.8 1.668 2.116 3.336 4.233 5.149 6.658z"/><path fill="#6FBCF1" d="M176.99 408.002c-.287 4.342.907 8.088 5.222 9.755 4.395 1.698 8.81-.265 12.176-4.28 2.658-3.169 5.723-5.997 8.608-8.975 10.266-10.6 20.508-21.224 30.841-31.759.908-.925 2.413-1.265 3.64-1.877.294.929.587 1.858.642 2.994-.618.141-.896.279-1.44.88-.791.54-1.216.817-1.641 1.095-6.066 6.25-12.09 12.54-18.206 18.74-8.056 8.167-15.733 16.81-24.54 24.074-2.86 2.358-9.125 2.271-13.183 1.083-5.62-1.647-5.595-7.284-4.319-12.365 1.097.228 1.648.432 2.2.635z"/><path fill="#72BEF4" d="M351.886 221.066c-3.03 2.057-1.816-.978-1.822-1.721-.092-10.129.78-20.348-.292-30.363-1.13-10.548 4.325-16.313 11.49-22.32 8.619-7.225 16.581-15.256 24.582-23.187 3.71-3.678 2.043-8.376 1.223-13.178 1.496 3.663 2.983 7.747 4.265 11.272a37097.24 37097.24 0 0 1-36.765 35.265c-.84 1.018-1.238 1.644-2.026 2.452-.42 13.65-.45 27.118-.519 40.885-.07.498-.103.696-.136.895z"/><path fill="#6FBCF1" d="M277.015 49.985c1.744 3.254 2.843 7.15 5.338 9.658 15.734 15.81 31.81 31.282 47.632 47.006.802.797 5.257 2.063.428 4.09-.451-.391-.5-.553-.6-1-.648-.721-1.242-1.158-1.836-1.595C316.38 96.66 304.826 85.133 293.16 73.72c-3.46-3.384-6.923-6.92-10.935-9.545-5.447-3.562-6.843-8.341-5.943-14.586.457-.11.62.127.732.397z"/><path fill="#72BDF3" d="M410.916 259.414c5.256 4.511 10.787 9.18 15.845 14.315 6.283 6.38 12.109 13.207 18.267 19.713 2.82 2.978 6.478 3.334 10.15 1.871 4.796-1.91 5.035-6.128 5.04-11.028.42-.842.624-1.116.827-1.39 3.043 4.062 2.897 9.476-.119 11.958-3.366 2.77-9.477 4.764-13.388 3.629-4.358-1.265-7.769-6.256-11.26-9.939-5.982-6.31-11.75-12.825-17.519-19.333-2.7-3.048-5.192-6.282-7.843-9.796z"/><path fill="#70BDF2" d="M173.536 83.108c.981.726 2.343 1.922 2.12 2.447-1.977 4.66 1.247 7.443 3.739 10.203 4.118 4.563 8.685 8.718 12.975 13.13a5736.216 5736.216 0 0 1 27.677 28.69c.774.808 1.244 1.906 1.878 3.222-1.776-.683-3.913-1.384-5.32-2.807-13.739-13.896-27.542-27.738-40.859-42.032-2.92-3.134-5.745-7.666-2.21-12.853z"/><path fill="#72BEF4" d="M473.44 258.943c2.506-3.33 6.023-2.838 8.573-.244 10.596 10.778 20.886 21.857 31.3 32.814 3.78 3.977 7.594 7.923 11.546 12.553.149 1.681.145 2.693.141 3.705-5.134-5.228-10.297-10.427-15.395-15.69-8.98-9.269-17.945-18.555-26.854-27.894-1.38-1.447-2.427-3.213-3.889-5.181-1.363 0-3.177 0-5.422-.063z"/><path fill="#6FBCF1" d="M329.767 387.925c-.236 1.506.083 3.583-.791 4.433-14.306 13.91-28.937 27.491-43.067 41.575-3.702 3.69-5.953 8.834-8.976 13.881-.28.816-.5 1.012-.761 1.16-1.106-5.636.625-9.782 5.003-13.894 15.824-14.86 31.188-30.21 47.083-45.822.74-.742 1.125-1.038 1.51-1.333z"/><path fill="#72BEF4" d="M535.56 183.904c-1.953 2.166-4.314 4.368-6.598 6.649-14.259 14.24-28.486 28.511-42.771 42.725-1.381 1.374-3.084 2.423-4.991 3.647.312-1.402.648-3.159 1.694-4.204 10.974-10.961 22.05-21.82 33.123-32.683 4.766-4.676 9.51-9.382 14.44-13.88 1.223-1.115 3.136-1.475 5.104-2.254z"/><path fill="#71BCF3" d="M459.372 141.967c.179-1.24.237-2.927 1.107-3.833 12.085-12.586 24.203-25.142 36.488-37.53 4.814-4.854 10.049-9.284 9.92-17.358 1.554 3.897 2.392 8.015-1.294 11.759-3.08 3.13-5.826 6.587-8.877 9.748-11.459 11.87-22.981 23.68-34.843 35.871-.557.382-.751.405-.946.427a18.76 18.76 0 0 1-1.555.916z"/><path fill="#72BDF3" d="M462.902 213.6c-.746-.19-2.078-1.09-1.98-1.292 2.583-5.306-1.669-7.73-4.71-9.984-3.682-2.726-7.586-1.54-10.719 1.693-9.444 9.747-18.837 19.543-28.314 29.257-1.351 1.384-3.06 2.418-4.956 3.633.536-1.666 1.135-3.606 2.361-4.99 5.782-6.528 11.61-13.024 17.67-19.291 4.447-4.6 8.792-9.623 14.138-12.897 2.84-1.74 8.148-1.218 11.555.19 4.247 1.753 6.208 8.97 4.955 13.68z"/><path fill="#72BEF4" d="M144.98 310.956c2.255-2.072 4.606-4.047 6.747-6.23 14.05-14.323 28.04-28.706 42.101-43.02 1.358-1.381 3.073-2.413 4.976-3.63-1.785 3.178-3.497 6.794-6.135 9.511a1734.87 1734.87 0 0 1-35.007 35.052c-3.6 3.502-7.927 6.257-12.294 9.062a1.073 1.073 0 0 1-.388-.745z"/><path fill="#71B9ED" d="M177.137 407.69c-.699.109-1.25-.095-1.987-.534.446-1.663.745-3.407 1.759-4.468 10.664-11.167 21.51-22.161 32.152-33.35 3.488-3.667 6.529-7.761 9.787-12.208.013-.549.056-.917.056-.917 1.402-.083 2.803-.166 4.621-.312-.388 1.319-.956 2.93-2.035 4.046-12.76 13.204-25.643 26.288-38.365 39.527-2.25 2.343-3.908 5.255-5.988 8.217z"/><path fill="#70BDF2" d="M289.517 135.13c2.004 2.257 3.325 5.069 5.41 7.091 10.91 10.579 22.063 20.907 33.004 31.453 1.96 1.89 3.326 4.4 4.66 6.973-1.014.348-1.723.345-2.514.1-.131-.403-.18-.566-.23-1.006-.555-.632-1.11-.987-1.664-1.341-8.866-8.435-17.713-16.889-26.614-25.286-1.76-1.662-3.748-3.08-5.595-4.654-4.052-3.449-6.85-7.56-6.457-13.33zM276.095 449.341c.339-.515.558-.711.849-1.146.576-.016 1.159.032 1.48.347 7.413 7.271 11.191 7.202 18.649-.09 9.967-9.747 20.02-19.405 30.073-29.062.928-.891 2.058-1.967 3.216-2.138 2.207-.327 3.43.452.656 2.712-1.067.487-1.51.853-1.952 1.22 0 0-.032.41-.331.71-.527.54-.71.81-.847 1.11-.967.504-2.116.816-2.873 1.54-9.617 9.194-19.217 18.408-28.739 27.7-6.18 6.032-15.598 4.913-20.181-2.903z"/><path fill="#72BEF4" d="M244.47 333.925c-1.307.656-3.07 1.967-4.843 1.98-19.724.147-39.452.276-59.173-.02-5.832-.088-10.402.977-13.551 6.848-.927.267-1.336.267-1.744.267 1.76-6.362 5.115-9.01 11.48-9.012 22.456-.01 44.912-.009 67.83-.063z"/><path fill="#73C3F9" d="M438.529 164.073c1.304-.652 3.064-1.963 4.835-1.979 17.398-.154 34.798-.12 52.197-.08 6.878.016 13.872.767 20.157-3.967-.616 4.345-3.42 6.006-7.76 5.994-22.99-.068-45.979-.03-69.43.032z"/><path fill="#6FBCF1" d="M509.01 237c.772-1.276 1.33-2.763 2.349-3.794 9.546-9.66 19.35-19.074 28.661-28.952 2.678-2.841 4.005-6.957 6.193-10.661 1.033.683 1.824 1.54 2.614 2.397-1.088 4.055-3.167 7.241-6.363 10.23-9.313 8.713-18.126 17.958-27.187 26.942-1.368 1.356-3.019 2.426-5.13 3.743-.774.108-.956.101-1.137.094z"/><path fill="#72C1F7" d="M509.04 237.405c.151-.399.333-.392.787-.379 1.744.325 3.215.915 4.688.92 18.552.064 37.104.03 55.656.054 5.33.007 10.593 4.031 10.763 8.578-.836.191-2.12.182-2.31-.279-2.663-6.437-8.08-6.39-13.786-6.345-16.829.13-33.66.107-50.487-.056-1.767-.017-3.52-1.36-5.31-2.493zM169.425 235.966c1.011 3.355-1.647 1.95-2.864 1.957-16.472.103-32.946.132-49.418.05-6.116-.03-12.216-.406-14.52 7.193-.12.397-1.13.525-2.082.798.256-6.173 4.515-9.95 11.094-9.961 19.11-.033 38.22-.014 57.79-.037z"/><path fill="#73C3F9" d="M510.555 259.024c-1.244-3.732 1.756-1.918 2.859-1.928 15.396-.134 30.794-.211 46.19-.046 7.538.081 15.131.895 20.899-6.03-1.296 5.91-3.862 7.978-9.682 7.981-19.934.011-39.869.002-60.266.023z"/><path fill="#6FBCF1" d="M316.89 258.958c.12.762.625 1.882.3 2.23-2.838 3.044-5.864 5.913-8.76 8.906-8.794 9.086-17.528 18.229-26.39 27.246-.55.56-1.864 4.173-3.062-.134 4.735-5.18 9.536-10.003 14.225-14.933 6.89-7.246 13.698-14.568 20.203-22.078-.338-.221-.45-.26-.246.093 1.38-.208 2.554-.769 3.73-1.33z"/><path fill="#72C1F7" d="M165.081 343.384c.486-.384.895-.384 1.61-.384 1.19 6.607 4.956 9.986 11.529 9.994 13.995.017 27.99-.034 41.984.07 1.314.01 2.621.922 3.84 1.735-16.047.285-32.003.266-47.96.206-7.968-.03-10.892-3.031-11.003-11.62z"/><path fill="#6FBCF1" d="M525.324 307.928c-.32-1.169-.316-2.18-.302-3.573 1.482.94 2.972 2.241 4.422 3.585 4.134 3.828 9.989 4.137 13.338.683 3.348-3.453 2.95-9.212-1.016-13.325-2.985-3.096-6.16-6.012-9.059-9.182-1.155-1.264-1.795-2.998-2.664-4.89 4.512 3.745 9.045 7.831 13.506 11.995 1.553 1.45 4.068 3.026 4.16 4.655.216 3.898-.373 7.959-1.357 11.767-.7 2.706-8.096 4.638-12.547 3.158-2.919-.97-5.45-3.104-8.48-4.873zM163.088 198.594c-2.258-1.401-4.687-3.037-6.887-4.94-2.134-1.845-3.97-4.033-6.05-5.949-3.461-3.189-8.498-3.653-11.903-1.219-3.246 2.32-4.214 6.893-2.337 11.277.523 1.222 1.189 2.382 1.94 4.243.146 1.128.14 1.585.133 2.042-5.356-3.138-7.99-10.06-5.672-14.909 2.185-4.572 11.352-9.364 15.123-6.883 4.401 2.894 7.85 7.262 11.611 11.09 1.466 1.493 2.656 3.256 4.042 5.248z"/><path fill="#72C1F7" d="M138.087 204.343c-.097-.752-.09-1.209-.085-2.008 3.248 2.413 6.712 4.955 9.702 7.968 6.908 6.962 13.6 14.137 20.335 21.268.77.817 1.25 1.907 1.89 3.222-1.046.308-2.116.263-3.719-.05-.758-.493-1.017-.669-1.31-.793-.799-1.319-1.38-2.85-2.43-3.92-7.028-7.162-14.155-14.226-21.462-21.84-.367-.788-.574-1.008-.835-1.178-.66-.79-1.321-1.582-2.086-2.669z"/><path fill="#6FBCF1" d="M470.204 397.474c-.01-.988.042-1.737.095-2.486l1.193-.826c5.765 6.057 11.67 11.988 17.258 18.203 6.425 7.145 8.962 7.514 16.45 1.635.314-.248.91-.137 1.668-.12-4.991 9.152-12.826 9.459-20.505 1.017-5.281-5.805-10.725-11.461-16.159-17.423zM477.578 91.078c.52.883 1.267 2.402.863 2.825-10.546 11.056-21.207 22.004-31.896 32.922-.192.197-.972-.182-1.527-.833-.052-.723-.055-.904-.058-1.085.052-.437.103-.874.402-1.766.45-.671.594-.92.68-1.205.636.062 1.579.427 1.862.14 4.996-5.06 9.943-10.169 14.836-15.328 4.88-5.146 9.689-10.36 14.838-15.67z"/><path fill="#70BDF2" d="M165.569 261.077c.41.995 1.051 2.636.538 3.172a2031.854 2031.854 0 0 1-32.95 33.635c-.288-.382-.233-.801.047-1.73.404-1.082.581-1.655.76-2.228 10.433-10.906 20.866-21.812 31.605-32.849z"/><path fill="#72BEF4" d="M277.623 298.137c-.895 2.276-1.647 5.1-3.4 7.002-7.967 8.646-16.191 17.056-24.391 25.485-1.235 1.268-2.83 2.186-4.61 3.287-.758-.27-1.164-.562-1.825-1.132-.256-.279-.311-.657-.311-.657 2.158-1.645 4.525-3.078 6.437-4.97 8.594-8.51 17.073-17.135 25.55-25.76.888-.904 1.496-2.082 2.55-3.255z"/><path fill="#72BDF3" d="M217.08 106.593c-1.542-.684-3.383-1.49-4.728-2.804-6.865-6.702-13.673-13.464-20.355-20.348-3.857-3.973-7.73-6.723-13.193-2.767-.245.178-1.17-.584-1.784-1.203 2.569-3.182 9.863-3.797 13.126-.612 9.147 8.928 17.933 18.225 26.933 27.734z"/><path fill="#72C1F7" d="M515.792 147.628c-.91.432-2.404.943-2.763.51-3.736-4.495-8.799-3.056-13.442-3.1-12.267-.118-24.536.004-36.803-.105-1.313-.011-2.617-.911-3.834-1.719 14.347-.287 28.603-.276 42.859-.214 5.053.022 10.526-1.2 13.983 4.628zM100.937 250.408c.601-.298 1.613-.474 1.864-.117 4.061 5.794 10.12 4.704 15.857 4.71 11.321.012 22.643-.04 33.963.059 1.706.014 3.406.693 5.237 1.434-15.581.42-31.293.6-47.001.436-4.223-.044-8.005-1.813-9.92-6.522z"/><path fill="#70BDF2" d="M404.895 442.61c-1.945-1.383-3.862-3.101-5.684-4.914-7.644-7.603-15.284-15.21-22.86-22.878-1.248-1.262-2.176-2.839-3.274-4.624 2.623 1.676 5.486 3.479 7.875 5.776 7.628 7.337 15.123 14.814 22.542 22.362.891.906 1 2.581 1.4 4.278zM420.08 314.603c-1.194-.347-2.697-.797-3.685-1.77a2266.59 2266.59 0 0 1-26.027-26.058c-1.077-1.097-1.57-2.768-2.326-4.545 10.66 10.428 21.314 21.227 32.038 32.373z"/><path fill="#73C3F9" d="M444.56 124.74c.403.348.406.53.41.983-.9.56-1.803.847-2.958 1.215 0-16.129-.024-32.006.039-47.883.005-1.45.557-2.9.947-4.768.602-.185 1.56.051 1.56.282-.084 16.669-.245 33.337.002 50.172z"/><path fill="#70BDF2" d="M297.086 188.588c-1.077-.218-2.466-.549-3.336-1.407a2317.301 2317.301 0 0 1-25.726-25.752c-.963-.98-1.34-2.537-1.982-4.198 10.328 10.085 20.65 20.542 31.044 31.357z"/><path fill="#71BFF4" d="M445.452 374.022c-1.336-.624-2.322-1.269-3.309-1.913l1.953-2.876c6.998 6.42 13.543 12.3 19.895 18.381.942.902.973 2.755 1.158 4.306-6.628-5.882-12.988-11.9-19.697-17.898z"/><path fill="#70BDF2" d="M501.082 397.594c-1.076-.223-2.464-.557-3.334-1.415a2327.961 2327.961 0 0 1-25.718-25.743c-.963-.98-1.345-2.533-1.992-4.192 10.327 10.084 20.65 20.54 31.044 31.35z"/><path fill="#71BCF3" d="M241.082 206.594c-1.434-.578-3.132-1.302-4.41-2.48-4.395-4.053-9.783-5.567-13.468-3.098-4.714 3.158-3.412 7.758-2.268 12.583.064.401.063.404-.167.6-.419.76-.608 1.325-.797 1.889-4.581-2.37-3.228-6.85-2.689-10.192.406-2.516 2.912-5.62 5.29-6.718 7.628-3.527 12.398-1.405 18.51 7.416z"/><path fill="#72BDF3" d="M411.466 236.921c-.8.656-2.053 1.965-3.322 1.98-12.534.157-25.07.132-37.605.033-.954-.007-1.9-.967-2.637-1.74 14.51-.244 28.806-.232 43.564-.273z"/><path fill="#6FBCF1" d="M199.092 235.596c-1.19-.337-2.69-.778-3.675-1.744a1507.742 1507.742 0 0 1-22.065-22.093c-1.07-1.095-1.559-2.759-2.31-4.531 9.331 9.092 18.655 18.556 28.05 28.368z"/><path fill="#70BDF2" d="M332.995 221.002c-.133 3.324-2.196 3.935-4.2 2.026-7.196-6.856-14.121-13.999-21.083-21.098-.498-.508-.464-1.537-.672-2.696 6.437 5.647 12.867 11.666 19.742 18.042.726.54 1.006.72 1.352 1.127.293.447.556.615.955 1.06 1.37.736 2.638 1.138 3.906 1.539z"/><path fill="#71BFF4" d="M415.44 187.915c-.67-.367-1.414-1.238-1.334-1.322 7.076-7.43 14.204-14.81 21.385-22.138.379-.387 1.255-.286 2.27-.397.503.311.634.607 1.006 1.172.243.27.241.602.241.602-1.442.989-3.067 1.792-4.296 2.998-6.376 6.26-12.652 12.623-19.272 19.085z"/><path fill="#70BDF2" d="M321 140.644c-1.451-.395-3.29-.802-4.595-1.864-2.307-1.88-4.265-4.186-6.414-6.268-4.981-4.827-7.298-5.168-13.816-2.321-.797.348-1.828.162-2.987-.03 7.8-6.649 15.189-5.294 22.277 3.807 1.707 2.192 3.587 4.25 5.534 6.676z"/><path fill="#6FBCF1" d="M221 214c6.092 6.313 12.202 12.608 18.238 18.974.5.527.496 1.53.46 2.664-.445.341-.623.33-.802.318-5.965-6.038-11.93-12.077-17.908-18.864-.005-1.53.003-2.31.01-3.09l.003-.002z"/><path fill="#70BDF2" d="M385.419 218.907c-.658-.374-1.387-1.241-1.296-1.338 6.789-7.222 13.616-14.408 20.541-21.498.54-.553 1.8-.402 3.107-.34-7.092 7.839-14.566 15.44-22.352 23.176z"/><path fill="#9AEBEA" d="M422.548 146.744c-.07 1.06-.54 1.952-1.278 3.005-.268-23.905-.268-47.97-.268-72.034l1.145-.003c0 22.955 0 45.91.4 69.032z"/><path fill="#70BDF2" d="M331.003 477.007c.61.47 1.516.811 1.788 1.43 3.066 6.98 7.747 8.633 14.263 5.046 1.077-.593 2.393-.75 3.791-1.337.242.483.512 1.739.305 1.823-4.265 1.738-8.495 3.683-12.926 4.85-2.85.75-6.888-4.6-7.957-10.579.467-.717.629-.957.736-1.233z"/><path fill="#71BFF4" d="M316.988 66.65c-.817.145-2.132.333-2.687-.23a827.448 827.448 0 0 1-20.208-21.198c4.716 3.634 9.597 7.462 14.134 11.66 3.12 2.888 5.761 6.29 8.761 9.768z"/><path fill="#FDFFFE" d="M260.975 349.26s.412-.235.633-.321c.22 23.356.22 46.797.22 70.24l-.851.005c0-22.897 0-45.794-.02-69.2-.02-.507.018-.725.018-.725z"/><path fill="#9AEAFA" d="M439.471 165.907c-.463-.075-.461-.407-.462-.573 23.035-.166 46.072-.166 69.108-.166v.814c-22.727 0-45.454 0-68.646-.075z"/><path fill="#71BFF4" d="M351.082 15.503c-2.453-1.204-4.741-3.559-7.476-4.33-6.436-1.816-9.858 2.082-12.359 7.534-.61-.352-.82-.55-1.077-.699.337-4.03 4.426-9.446 7.565-10.02 3.707-.676 12.243 2.558 13.764 5.334.211.385-.285 1.158-.417 2.181z"/><path fill="#FDFFFE" d="M242.61 332.065c.476.057.531.435.504.624-22.477.19-44.925.19-67.374.19l-.004-.872c22.133 0 44.267 0 66.875.058z"/><path fill="#71BFF4" d="M365.509 258.074c.056-.655.57-1.973 1.096-1.978 12.014-.117 24.03-.09 36.03.338-3.79.555-7.58 1.11-11.509 2.03-6.496.093-12.854-.196-19.214-.434-1.977-.074-3.96-.01-6.403.044z"/><path fill="#5CBDEA" d="M331.001 476.538c-.105.745-.267.985-.658 1.317-.276-18.702-.377-37.533-.877-56.518.042-.52.485-.886 1.224-1.296.301 18.646.305 37.337.311 56.497z"/><path fill="#73C3F9" d="M238.07 422.39c1.064.069 2.301.277 3.038.997 6.677 6.525 8.516 6.67 15.598.772.293-.16.287-.166.24.18-.664 1.82-1.279 3.295-1.893 4.77-10.077 3.544-14.259 1.989-16.984-6.718z"/><path fill="#6AD0FD" d="M355.545 74.97c-.292.312-1.023.671-2.075 1.043-.323-19.386-.323-38.785-.323-58.184l.855-.015v5.013c0 15.948-.028 31.896.048 47.844.007 1.45.69 2.898 1.495 4.299z"/><path fill="#03FDFF" d="M326.566 74.35c.478-1.577 1.36-3.15 1.37-4.73.101-16.575.062-33.15 1.01-49.732 0 18.32 0 36.64-.25 55.351-.877-.035-1.503-.462-2.13-.889z"/><path fill="#5CBDEA" d="M330.096 18.47c.33-.313.541-.115.807.324.1 17.515.112 34.836.075 52.157-.004 1.807-.301 3.613-.74 5.467-.28-.131-.282-.31-.285-.49.023-18.998.045-37.996.143-57.457z"/><path fill="#6AD0FD" d="M353.099 422.487c.35-.287.573-.06.852.43.11 18.9.11 37.585.11 56.271l-1.037-.002c0-18.746 0-37.491.075-56.699z"/><path fill="#03FDFF" d="M327.938 423.472c.087-.769.27-1.039.717-1.39.219 17.971.219 36.052.219 54.134l-.887.005c0-17.427 0-34.854-.05-52.749z"/><path fill="#9AEAFA" d="M539 259.993h33.248l-.002.72h-52.305l-.028-.72H539z"/><path fill="#6FBCF1" d="M526.084 276.583c-5.43-5.167-10.93-10.696-16.203-16.431 5.53 5.219 10.831 10.643 16.203 16.43z"/><path fill="#73C3F9" d="M260.932 99.522c-.684-1.214-1.722-2.86-1.857-4.578-.504-6.397-.711-12.818-1.029-19.66 1.266.148 2.53.728 2.947.918 0 7.898 0 15.377-.06 23.32zM239.103 79.454c.981.372 2.594 1.128 2.66 1.998.29 3.896.199 7.827.054 11.738-.015.394-1.325.74-2.346.971a58.16 58.16 0 0 1-.775-8.45c-.034-1.938.207-3.88.407-6.257z"/><path fill="#6FBCF1" d="M369.396 235.078a283.111 283.111 0 0 1 10.856-13.681c.272-.323 1.539.195 2.58.48-4.206 4.48-8.649 8.804-13.436 13.2z"/><path fill="#73C3F9" d="M183.525 141.066c-.396.675-1.305 1.878-2.104 1.81-6.614-.567-12.747.275-18.164 5.086.078-5.54 4.536-6.274 8.55-6.854 3.68-.531 7.499-.106 11.718-.042z"/><path fill="#9AFDFF" d="M461.139 141.436c-.017-.407.177-.43.662-.49 15.595-.038 30.898-.038 46.202-.038l.006.913c-15.553 0-31.106 0-46.87-.385z"/><path fill="#71BCF3" d="M256.079 222.595a289.432 289.432 0 0 1-14.035-14.373c4.66 4.424 9.313 9.22 14.035 14.373z"/><path fill="#9AFDFF" d="M235.414 376.072c.049-.515.474-.793 1.16-1.106.262 15.042.262 30.12.262 45.197l-1.045.006c0-14.62 0-29.24-.377-44.097z"/><path fill="#68CDD5" d="M446.02 121.472c-.064.748-.208.998-.582 1.348-.171-14.934-.171-30.001-.171-45.069l.73-.008c0 14.421 0 28.843.022 43.729z"/><path fill="#9AEBEA" d="M218.453 356.118c.451.095.408.463.412.648-15.072.185-30.147.185-45.223.185l-.005-.927c14.788 0 29.576 0 44.816.094z"/><path fill="#6AD0FD" d="M353.73 278.054c.522.5.776 1.008 1.138 1.778-.217 1.723-.813 3.18-.823 4.643-.08 11.532-.048 23.065-.431 35.068-.796.483-1.21.495-1.624.508 0 0-.013-.027-.009-.391.03-.839.055-1.313.479-1.952.421-13.32.443-26.477.464-39.634.18-.004.358-.01.805-.02z"/><path fill="#70BDF2" d="M379.08 272.595a280.706 280.706 0 0 1-14.004-13.397c2.453-.585 3.376.795 4.736 2.813 2.539 3.765 6.076 6.857 9.268 10.584zM259.942 132.527c-.364.338-.929.208-.928.084.08-7.124.206-14.247.72-21.47.35 6.907.31 13.915.208 21.386z"/><path fill="#71BFF4" d="M277.354 49.917c-.451-.202-.614-.439-1.001-.768 2.285-7.467 10.292-9.64 17.597-4.565-.788.226-1.808.281-2.705-.025-6.034-2.059-10.297.295-13.89 5.358z"/><path fill="#03FDFF" d="M328.069 218.178c-.28-.182-.56-.363-.975-.758.213-1.722.846-3.227.859-4.738.095-11.144.067-22.29.154-33.859.63-.069 1.185.286 1.374 1.142-.403 11.556-.406 22.61-.52 33.663-.016 1.52-.581 3.033-.892 4.55z"/><path fill="#6AD0FD" d="M352.93 179.104c.399-.626.797-1.252 1.48-1.958.053 4.165-.329 8.407-.377 12.653-.102 9.08-.031 18.16-.028 27.708-.127.724-.286.963-.701.868-.277-13.3-.325-26.285-.374-39.27z"/><path fill="#9AEAFA" d="M271.47 259.908c-.464-.067-.47-.408-.002-.645 12.656-.242 24.845-.279 37.033-.211 1.486.008 2.97.575 4.455.883 0 0 .112.039.137-.015-13.703-.017-27.43.019-41.623-.012z"/><path fill="#71BFF4" d="M386.975 352.621c-6.607-1.465-9.932-7.118-13.9-12.421 2.955 2.018 6.025 4.286 8.879 6.8 1.794 1.58 3.264 3.53 5.021 5.621z"/><path fill="#73C3F9" d="M217.523 142.066c.338.36.208.925.086.923-6.787-.076-13.572-.2-20.454-.71 6.57-.351 13.237-.312 20.368-.213z"/><path fill="#03FDFF" d="M327.986 108.601c.585-.02 1.179.417 1.455 1.355-.353 12.312-.388 24.123-.834 35.907-1.01-.933-1.61-1.84-2.208-2.746.533-1.078 1.517-2.15 1.53-3.234.116-10.274.068-20.55.057-31.282z"/><path fill="#73C3F9" d="M475.477 355.932c-.338-.361-.208-.926-.086-.925 6.454.098 12.907.244 19.446.779-6.241.331-12.568.27-19.36.146z"/><path fill="#71BCF3" d="M269.067 236.562a206.593 206.593 0 0 1-12.025-12.333c3.874 3.857 9.782 6.107 12.025 12.333z"/><path fill="#6FBCF1" d="M455.085 275.596a216.49 216.49 0 0 1-12.044-12.363c3.996 3.756 7.985 7.884 12.044 12.363z"/><path fill="#73C3F9" d="M194.477 162.933c-.337-.36-.207-.926-.085-.924 6.453.097 12.906.242 19.445.776-6.241.333-12.568.27-19.36.148z"/><path fill="#03FDFF" d="M329.241 319.047c-.239.159-.653.04-.867.014-.268-12.41-.322-24.795-.38-37.653.127-.738.29-.98.742-.818.258 11.243.224 22.107.31 32.97.011 1.449.627 2.893.962 4.34-.175.33-.351.659-.767 1.147z"/><path fill="#73C3F9" d="M463.523 334.067c.232.496-.006 1.315-.23 1.31-6.336-.108-12.67-.3-19.14-.842 6.211-.419 12.558-.474 19.37-.468zM496.523 335.07c.338.36.21.925.089.923-6.452-.075-12.903-.198-19.448-.705 6.235-.353 12.565-.317 19.359-.219z"/><path fill="#03FDFF" d="M329.844 387.688c-.461.532-.845.828-1.433 1.268-.334-11.442-.466-23.028-.935-35.002-.337-.388-.378-.608-.101-.737.68-.174 1.083-.22 1.55.203.067 10.013.032 19.557.118 29.1.013 1.481.581 2.957.893 4.435 0 0-.015.497-.092.733z"/><path fill="#71BFF4" d="M368.993 335.648c-6.285-1.11-9.269-6.47-12.918-11.45 4.242 3.48 8.507 7.311 12.918 11.45z"/><path fill="#6AD0FD" d="M352.85 351.085c.37.477.74.954 1.158 1.742.03 11.952.01 23.592-.083 35.695-.34-.04-.609-.542-.902-1.797-.075-12.382-.124-24.01-.173-35.64z"/><path fill="#73C3F9" d="M422.066 382.477c.68.549 1.794 1.542 1.836 2.578.192 4.778.114 9.57.018 14.354-.006.3-.993.579-1.773.709-.213-5.832-.176-11.505-.08-17.641zM442.933 404.523c-.36.338-.924.209-.923.087.08-6.124.206-12.248.719-18.473.349 5.907.307 11.914.204 18.386z"/><path fill="#6AD0FD" d="M354.6 143.945c-.19.896-.751 1.55-1.459 1.605-.159-11.877-.172-23.158-.185-34.44.117-.288.282-.545.677-.913.32 11.073.457 22.288.967 33.748z"/><path fill="#73C3F9" d="M226.477 163.932c-.098-.572.286-1.541.63-1.527 5.55.235 11.097.595 16.741 1.317-5.572.351-11.24.311-17.371.21z"/><path fill="#9AEBEA" d="M142.992 234.836h-34.29l-.001-.821c11.121 0 22.243 0 33.828.242.463.243.463.579.463.579z"/><path fill="#71BCF3" d="M327.098 353.346s.04.22.034.331a41.676 41.676 0 0 1-4.672 2.4c1.805-2.653 3.845-5.506 6.293-7.953.52-.519 2.522.445 3.841.725-.71.878-1.421 1.756-2.617 2.807-.645.235-.805.297-1.168.156-.706.377-1.209.956-1.711 1.534z"/><path fill="#73C3F9" d="M434.383 425.928c1.83-2.85 4.325-5.461 6.121-8.487 1.162-1.956 1.3-4.52 2.134-7.108.266 2.437.297 5.171-.012 8.533a14.237 14.237 0 0 0-.635 2.861c-2.413 1.421-4.827 2.842-7.608 4.2z"/><path fill="#72BDF3" d="M236.92 126.577c-.266.545-.96 1.057-1.021.99-3.322-3.623-6.59-7.295-9.858-11.333 3.585 3.098 7.165 6.569 10.878 10.343z"/><path fill="#70BDF2" d="M261.086 151.57c-4.43-.496-4.611-3.44-3.49-7.02.618-1.975 1.212-3.96 2.056-6.231.768 4.082-.695 8.628 1.434 13.25z"/><path fill="#71BFF4" d="M329.662 75.923c.294.185.296.364.307.812.981 1.041 1.956 1.814 3.036 2.67-3.639 2.02-5.454.963-8.93-5.201.541-.284 1.108-.212 2.083.003 1.035.57 1.66.997 2.472 1.48.37.115.556.172 1.032.236z"/><path fill="#73C3F9" d="M239.068 109.472c.684 1.73 1.54 3.885 1.865 6.117.309 2.118.063 4.317-.404 7.063-.77.677-1.073.773-1.377.868-.048-4.53-.096-9.059-.084-14.048z"/><path fill="#70BDF2" d="M437.928 332.557c-5.193.086-7.09-3.882-8.887-8.325 2.921 2.427 5.837 5.225 8.887 8.325z"/><path fill="#72BEF4" d="M227.465 257.94c2.442-2.593 8.806-2.776 11.666-.16-3.872.246-7.542.234-11.666.16z"/><path fill="#70BDF2" d="M326.216 143.055c.782.969 1.38 1.875 2.627 2.867.648.087 1.13.018 1.13.018.198.274.397.547.81 1.326.214 1.235.212 1.964.21 2.693-2.296-1.802-4.594-3.604-6.915-5.763.636-.639 1.295-.92 2.138-1.14z"/><path fill="#6AD0FD" d="M143.455 234.91c-.463-.074-.463-.41-.463-.578 6.994-.224 13.99-.28 21.446-.359.755.101 1.014.277 1.377.693-7.206.233-14.551.275-22.36.244z"/><path fill="#70BDF2" d="M465.079 360.616c-1.835-1.122-3.872-2.444-5.548-4.126-.444-.446.223-1.998.38-3.043.646.308 1.293.617 2.042 1.525.358 1.067.614 1.534.87 2 .73 1.103 1.459 2.206 2.256 3.644z"/><path fill="#72BEF4" d="M548.908 195.611c-.871-.478-1.662-1.335-2.686-2.4a33.655 33.655 0 0 1-2.163-4.972c3.11 1.119 4.3 3.87 4.85 7.372zM543.962 187.597c-1.866-.694-3.892-1.714-5.934-3.097 2.954-1.24 4.661.216 5.934 3.097zM473.514 237.062c-4.634.226-9.73.39-15.154.309 4.68-.288 9.686-.33 15.154-.31z"/><path fill="#73C3F9" d="M238.439 235.974c.636-.006.814.005 1.26.029-4.49.21-9.247.41-14.333.368 3.986-.288 8.3-.334 13.073-.397z"/><path fill="#71BFF4" d="M390.921 357.637c-.068.362-.51.37-.73.376-1.195-1.458-2.17-2.923-3.132-4.76 1.318 1.094 2.625 2.559 3.862 4.384z"/><path fill="#72BEF4" d="M386.965 129.602c-1.82-.46-3.8-1.242-5.833-2.38 1.854.448 3.764 1.254 5.833 2.38z"/><path fill="#6FBCF1" d="M461.119 282.593c-.277.576-.48.85-.898 1.265-.873-1.333-1.53-2.808-2.18-4.64 1.055.785 2.103 1.929 3.078 3.375z"/><path fill="#72BDF3" d="M239.077 123.778c.38-.353.683-.449 1.45-.663.462 1.529.462 3.176.462 5.368-1.158-.57-1.846-.91-2.818-1.392.088-1.115.46-2.085.906-3.313z"/><path fill="#73C3F9" d="M257.003 424.003c.756-1.222 1.507-2.448 2.558-3.822.27 1.074.24 2.296-.468 3.68-1.153.154-1.626.143-2.1.132l.01.01z"/><path fill="#6AB3E5" d="M256.945 424.338c.522-.334.995-.323 1.824-.298-.793 1.598-1.94 3.183-3.402 4.918.3-1.324.915-2.8 1.578-4.62z"/><path fill="#72BEF4" d="M200.456 257.937a38.663 38.663 0 0 1 6.227-.291c-1.743.274-3.77.316-6.227.29z"/><path fill="#73C3F9" d="M239.06 97.47c.225 1.691.378 3.81.296 6.212-.28-1.74-.325-3.762-.297-6.212zM196.892 141.583c-1.938.244-4.087.134-6.546-.213 1.905-.206 4.12-.173 6.546.213zM463.01 356.638c-.443-.132-.699-.599-.98-1.337 1.44-.145 2.904-.018 4.65.339-.973.375-2.228.52-3.67.998zM257.002 73.651c-.843-.085-1.834-.472-2.906-1.19.865.075 1.812.482 2.906 1.19zM182.486 162.92c1.064-.227 2.523-.36 4.23-.267-1.112.27-2.473.316-4.23.267zM422.076 371.413c.073-.408.496-.412.707-.411.078 1.467-.055 2.933-.42 4.68-.275-1.099-.317-2.48-.287-4.269zM476.905 334.585c-1.305.233-2.8.123-4.582-.223 1.273-.197 2.832-.158 4.582.223z"/><path fill="#6AB3E5" d="M133.647 293.995c.138.504-.04 1.077-.458 1.84-.114-.464.014-1.118.458-1.84z"/><path fill="#73C3F9" d="M144.569 310.967c.411-.011.426.442.427.669a9.515 9.515 0 0 1-3.965-.246c.927-.366 2.027-.389 3.538-.423z"/><path fill="#71BFF4" d="M352.061 320.365c.343-.327.757-.34 1.482-.358.365.428.42.862.541 1.62-.605-.101-1.278-.525-2.023-1.262z"/><path fill="#6AB3E5" d="M442.297 421.654c-.207-.672-.109-1.416.199-2.348.175.633.14 1.454-.2 2.348zM220.769 214.2c.222.583.214 1.363.193 2.532-.295.21-.576.03-.923-.397.122-.811.311-1.375.73-2.136z"/><path fill="#70BDF2" d="M443.011 333.606c-.73.21-1.605.087-2.73-.26.695-.173 1.64-.123 2.73.26z"/><path fill="#73C3F9" d="M217.396 163.916c.481-.2 1.325-.329 2.367-.255-.535.243-1.27.284-2.367.255z"/><path fill="#72BDF3" d="M407.394 258.923c.482-.201 1.328-.332 2.373-.259-.537.246-1.274.287-2.373.259z"/><path fill="#73C3F9" d="M202.61 236.06c-.481.202-1.328.345-2.374.281.537-.251 1.273-.295 2.374-.28z"/><path fill="#FDFFFE" d="M445.404 380.912c-.342-.651-.366-1.414-.354-2.558.248.562.46 1.504.354 2.558z"/><path fill="#72BEF4" d="M479.612 237.057c-.483.205-1.331.343-2.38.273.539-.251 1.277-.295 2.38-.273z"/><path fill="#73C3F9" d="M507.651 335.074c-.222.19-.764.308-1.46.243.277-.228.71-.272 1.46-.243z"/><path fill="#70BDF2" d="M505.99 403.992c.01-.19.018-.38.043-.855.551.036 1.085.357 1.36.795-.448.107-.635.097-1.108.078-.285-.01-.295-.018-.295-.018z"/><path fill="#73C3F9" d="M260.923 108.65c-.185-.224-.302-.768-.234-1.464.225.28.264.712.234 1.464z"/><path fill="#71BFF4" d="M140.135 207.277c.299-.095.506.125.749.605-.205.027-.496-.157-.749-.605z"/><path fill="#72BEF4" d="M537.068 183.682c-.104.266-.322.278-.867.262.033-.19.393-.353.867-.262zM455.258 258.933c-.043-.399.212-.481.622-.178.096.127-.383.236-.622.178z"/><path fill="#72C1F7" d="M581.312 249.053c-.269-.107-.282-.33-.275-.887.19.034.36.403.275.887z"/><path fill="#73C3F9" d="M260.792 349.22c.183.04.145.257.036.281-.109.024-.447.261-.623.368-.176.107-.073-.264-.019-.446.054-.181.423-.243.606-.203z"/><path fill="#72BEF4" d="M441.26 258.918c-.039-.39.214-.468.617-.173.097.124-.38.234-.617.173z"/><path fill="#73C3F9" d="M502.74 335.069c.238.054-.096.375-.096.375s-.424-.069-.52-.196c-.097-.126.379-.233.616-.18zM208.74 236.066c.239.052-.093.378-.093.378s-.426-.067-.523-.194c-.096-.127.379-.237.617-.184zM469.74 334.07c.237.056-.097.378-.097.378s-.424-.071-.52-.199c-.096-.127.38-.236.617-.18zM260.928 104.74c-.394.046-.478-.206-.179-.615.125-.096.232.378.18.615z"/><path fill="#64B7E8" d="M332.996 220.533c-1.269.068-2.537-.334-3.521-1.29.417-13.12.55-25.687.684-38.254l2.482.009c.355 13.021.356 26.044.355 39.535z"/><path fill="#73C3F9" d="M271.671 256.902c7.44-.3 14.877-.703 22.32-.872 6.47-.147 12.947-.113 19.416.04 1.316.03 2.61.945 3.246 1.693-13.73.24-26.79.28-39.85.192-1.713-.012-3.421-.686-5.132-1.053z"/><path d="M271.68 256.815c1.702.454 3.41 1.128 5.123 1.14 13.06.089 26.12.049 39.644.067.462.018.55.48.496.708-1.229.79-2.404 1.35-3.783 1.558-1.69-.661-3.173-1.228-4.66-1.236-12.187-.068-24.376-.031-37.03.04-.989-.063-1.514-.193-2.716-.492 1.392-.51 2.048-.75 2.95-1.218.246-.228.186-.595.186-.595s-.2-.059-.21.028zM352.955 278.078c-.052 13.153-.074 26.31-.518 39.206-.645-2.251-.868-4.243-1.09-6.235-.277-.013-.553-.027-.312.242.149-.517-.22-1.317-.59-2.117.535-2.781 1.444-5.55 1.53-8.345.218-6.965.06-13.94.061-21.626.31-.833.613-.951.915-1.07 0 0 .034-.05.004-.055zM330.002 317.438c-.33-.985-.945-2.429-.956-3.878-.086-10.863-.052-21.727-.107-33.053.128-.773.307-1.085.758-1.408.28 12.617.29 25.247.305 38.339zM329.986 145.475c-.013.465-.495.534-.731.474-.202-11.87-.167-23.68.24-35.708.419-.055.467.107.593.51.023 11.58-.033 22.92-.102 34.724zM329.012 352.014c.16-.061.32-.123.73-.125.253 11.418.256 22.776.227 34.6-.345-1.012-.913-2.488-.926-3.968-.086-9.544-.05-19.088-.041-29.329.014-.695.01-1.178.01-1.178z"/><path fill="#71BFF4" d="M350.939 311.43c.63 1.611.853 3.603 1.1 6.019-.003.898-.029 1.372-.07 2.203-3.662-1.828-1.617-4.997-1.03-8.223z"/><path fill="#70BDF2" d="M352.84 277.826c-.191.426-.494.544-.884.914-.84-.881-1.592-2.013-2.344-3.146l1.233-.835c.628.92 1.256 1.84 1.995 3.067z"/><path fill="#6FBCF1" d="M331.31 149.902c-.315-.672-.313-1.401-.314-2.495.21.57.42 1.504.315 2.495z"/><path fill="#6AD0FD" d="M352.025 221.274c-.106-.407-.073-.605.214-1.076.253-.273.68-.357.68-.357.024.492.048.985.062 1.849-.279.178-.548-.015-.956-.416z"/><path fill="#70BDF2" d="m409.007 192.005-.233.376s.01-.289.118-.335c.108-.046.115-.04.115-.04z"/><path fill="#72BDF3" d="M237.515 129.523c-.033.015.032-.016 0 0z"/><path fill="#70BDF2" d="M410.009 191.006c-.133.3-.33.551-.795.876-.207.123-.214.118-.216.115.133-.302.328-.552.793-.876.209-.121.218-.115.218-.115z"/><path fill="#70BDF2" d="M409.997 190.996c-.003-.004.234-.374.234-.374s-.012.287-.117.335c-.105.05-.114.043-.117.039z"/><path fill="#71BFF4" d="M350.359 309.841c.456.133.825.933.655 1.865-.607-.312-.675-.755-.655-1.865z"/><path fill="#70BDF2" d="M353.516 274.53c-.034.016.034-.018 0 0zM506.004 404.005c.003.005-.236.376-.236.376s.01-.29.117-.34c.105-.049.115-.041.119-.036z"/><path d="M352.96 219.615c-.04.226-.468.31-.684.284-.185-13.495-.155-26.963.265-40.613.438 12.804.486 25.79.607 39.238.071.462-.148.865-.188 1.09zM352.557 111.278c.412 11.114.425 22.395.422 34.135-.33-.188-.915-.836-.916-1.484-.011-10.828.05-21.656.494-32.65zM352.481 351.301c.418 11.413.467 23.042.5 35.133-.33-.523-.912-1.507-.915-2.492-.037-10.808.017-21.617.415-32.64zM330.077 180.748c-.052 12.808-.185 25.374-.704 38.161-.683.109-.946-.059-1.239-.506.246-1.742.811-3.255.827-4.775.114-11.053.117-22.107.521-33.386.415-.061.464.102.595.506z"/><path fill="#6AB3E5" d="M328.809 351.812c.203.202.207.685.13.913-.481.273-.884.318-1.564.492.225-.45.728-1.028 1.434-1.405z"/></svg>